# xmcd CD database file
#
# Track frame offsets:
#	150
#	27035
#	44768
#	72869
#	97486
#	126081
#	148219
#	175878
#
# Disc length: 2736 seconds
#
# Revision: 0
# Processed by: cddbd v1.5.1PL0 Copyright (c) Steve Scherf et al.
# Submitted via: CDex 1.51
#
DISCID=7a0aae08
DTITLE=Stanley Turrentine - Never Let Me Go
DYEAR=2004
DGENRE=Jazz
TTITLE0=Trouble
TTITLE1=God Bless The Child
TTITLE2=Sara's Dance
TTITLE3=Without A Song
TTITLE4=Major's Minor
TTITLE5=Never Let Me Go
TTITLE6=You'll Never Get Away From Me
TTITLE7=They Can't Take That Away From Me
EXTD=YEAR: 2004
EXTT0=
EXTT1=
EXTT2=
EXTT3=
EXTT4=
EXTT5=
EXTT6=
EXTT7=
PLAYORDER=
